<svg xmlns="http://www.w3.org/2000/svg" viewBox="0 0 128 128" role="img" aria-label="Relay icon"><defs><filter id="depth" x="-45%" y="-45%" width="190%" height="190%"><feDropShadow dx="0" dy="8" stdDeviation="5" flood-color="#221a16" flood-opacity=".20"/><feDropShadow dx="0" dy="1" stdDeviation="1" flood-color="#fff8ef" flood-opacity=".36"/></filter><linearGradient id="paper" x1="20" y1="14" x2="108" y2="116" gradientUnits="userSpaceOnUse"><stop stop-color="#fff8ee"/><stop offset="1" stop-color="#dfd1bf"/></linearGradient><linearGradient id="ink" x1="18" y1="14" x2="108" y2="116" gradientUnits="userSpaceOnUse"><stop stop-color="#31313b"/><stop offset="1" stop-color="#080911"/></linearGradient><linearGradient id="coral" x1="18" y1="16" x2="110" y2="114" gradientUnits="userSpaceOnUse"><stop stop-color="#eda891"/><stop offset=".55" stop-color="#ce735b"/><stop offset="1" stop-color="#884a3c"/></linearGradient><linearGradient id="rose" x1="18" y1="16" x2="108" y2="116" gradientUnits="userSpaceOnUse"><stop stop-color="#e4a4ad"/><stop offset=".55" stop-color="#ba6c84"/><stop offset="1" stop-color="#6f425b"/></linearGradient><linearGradient id="teal" x1="16" y1="16" x2="108" y2="112" gradientUnits="userSpaceOnUse"><stop stop-color="#83aaa0"/><stop offset=".55" stop-color="#4f827a"/><stop offset="1" stop-color="#244d52"/></linearGradient><linearGradient id="blue" x1="18" y1="16" x2="108" y2="112" gradientUnits="userSpaceOnUse"><stop stop-color="#7fa2d4"/><stop offset=".52" stop-color="#456fa8"/><stop offset="1" stop-color="#172d61"/></linearGradient><linearGradient id="gold" x1="20" y1="16" x2="108" y2="112" gradientUnits="userSpaceOnUse"><stop stop-color="#f0c763"/><stop offset=".55" stop-color="#be8434"/><stop offset="1" stop-color="#6e421e"/></linearGradient></defs><g filter="url(#depth)"><rect x="22" y="28" width="38" height="58" rx="9" fill="url(#paper)"/><path d="M34 46h14M34 61h18M34 76h10" stroke="url(#ink)" stroke-width="5" stroke-linecap="round" opacity=".78"/><path d="M57 63h28" stroke="url(#ink)" stroke-width="7" stroke-linecap="round"/><path d="M78 50l19 13-19 13" fill="none" stroke="url(#ink)" stroke-width="7" stroke-linecap="round" stroke-linejoin="round"/><rect x="78" y="34" width="31" height="58" rx="10" fill="url(#coral)"/><path d="M88 52h12M88 66h12" stroke="#fff8ee" stroke-width="5" stroke-linecap="round" opacity=".86"/><circle cx="94" cy="91" r="10" fill="url(#gold)"/><path d="M88 91h12" stroke="#fff8ee" stroke-width="4" stroke-linecap="round"/></g></svg>